<?xml version="1.0" encoding="utf-8"?>
<!-- Generator: Adobe Illustrator 23.0.2, SVG Export Plug-In . SVG Version: 6.00 Build 0)  -->
<svg version="1.1" id="Capa_1" xmlns="http://www.w3.org/2000/svg" xmlns:xlink="http://www.w3.org/1999/xlink" x="0px" y="0px"
	 viewBox="0 0 97.6 97.6" style="enable-background:new 0 0 97.6 97.6;" xml:space="preserve">
<style type="text/css">
	.st0{fill:#991A2A;}
</style>
<g>
	<path class="st0" d="M96.9,17.4L84,6c-0.4-0.4-0.9-0.5-1.4-0.5c-0.5,0-1,0.3-1.4,0.7l-47,53.5L17.4,37.5c-0.3-0.4-0.8-0.7-1.3-0.8
		c-0.5-0.1-1.1,0.1-1.5,0.4L0.8,47.6c-0.9,0.7-1.1,1.9-0.4,2.8l31,41c0.4,0.5,0.9,0.8,1.5,0.8c0,0,0,0,0.1,0c0.6,0,1.1-0.2,1.5-0.7
		l62.6-71.3C97.8,19.4,97.8,18.1,96.9,17.4z"/>
</g>
</svg>
