<?xml version="1.0" encoding="utf-8"?>
<!-- Generator: Adobe Illustrator 23.0.2, SVG Export Plug-In . SVG Version: 6.00 Build 0)  -->
<svg version="1.1" id="Layer_1" xmlns="http://www.w3.org/2000/svg" xmlns:xlink="http://www.w3.org/1999/xlink" x="0px" y="0px"
	 viewBox="0 0 150 150" style="enable-background:new 0 0 150 150;" xml:space="preserve">
<style type="text/css">
	.st0{fill:#FFFFFF;stroke:#000000;stroke-miterlimit:10;}
	.st1{fill:#D63D52;}
	.st2{fill:#FF4154;}
	.st3{fill:#FF6171;}
	.st4{fill:#FF808D;}
</style>
<rect x="-15" y="-12" class="st0" width="281.5" height="281.5"/>
<path class="st1" d="M100.9,49.3l1.9-20.6l15.4,3.3c4.7,1.3,14.9,4.7,22,11.7l2.8,2.8l-2.8,2.8C129.4,60.2,111.8,60.2,100.9,49.3z"
	/>
<path class="st2" d="M100.9,10.1l2.8-2.8l2.8,2.8l0,0c7,7,10.4,17.2,11.7,21.9l-17.3,17.3C90.1,38.5,90.1,20.9,100.9,10.1z"/>
<path class="st1" d="M49.7,100.6l-20.6,1.9l3.3,15.4c1.3,4.7,4.7,14.9,11.7,22l2.8,2.8l2.8-2.8C60.5,129,60.5,111.4,49.7,100.6z"/>
<path class="st2" d="M10.4,100.6l-2.8,2.8l2.8,2.8l0,0c7,7,17.2,10.4,21.9,11.7l17.3-17.3C38.8,89.8,21.2,89.8,10.4,100.6z"/>
<path class="st2" d="M95.9,114L75.3,52.6l-31.2,53.7c8,8,19,12.9,31.2,12.9C82.7,119.1,89.7,117.3,95.9,114z"/>
<path class="st3" d="M95.9,114c14-7.4,23.6-22.1,23.6-39.1c0-12.2-4.9-23.2-12.9-31.2l-26.8,4.4L75.3,75C78.1,87.1,81,99.1,95.9,114
	z"/>
<path class="st4" d="M75.3,30.8c-7.4,0-14.4,1.8-20.6,5.1l5.7,24.2L75.3,75l31.2-31.2C98.5,35.8,87.5,30.8,75.3,30.8z"/>
<path class="st3" d="M54.7,35.9C40.7,43.3,31.1,58,31.1,75c0,12.2,4.9,23.2,12.9,31.2L75.3,75C72.5,62.9,69.6,50.8,54.7,35.9z"/>
</svg>
