<?xml version="1.0" encoding="utf-8"?>
<!-- Generator: Adobe Illustrator 23.0.2, SVG Export Plug-In . SVG Version: 6.00 Build 0)  -->
<svg version="1.1" id="Capa_1" xmlns="http://www.w3.org/2000/svg" xmlns:xlink="http://www.w3.org/1999/xlink" x="0px" y="0px"
	 viewBox="0 0 512 419.6" style="enable-background:new 0 0 512 419.6;" xml:space="preserve">
<style type="text/css">
	.st0{fill:#3B3A3A;}
</style>
<g>
	<g>
		<path class="st0" d="M497,157.5h-65.3V92.2c0-8.3-6.7-15-15-15s-15,6.7-15,15v65.3h-65.3c-8.3,0-15,6.7-15,15s6.7,15,15,15h65.3
			v65.3c0,8.3,6.7,15,15,15s15-6.7,15-15v-65.3H497c8.3,0,15-6.7,15-15S505.3,157.5,497,157.5z"/>
	</g>
</g>
<g>
	<g>
		<path class="st0" d="M175.7,228.9C78.8,228.9,0,307.7,0,404.6c0,8.3,6.7,15,15,15h321.3c8.3,0,15-6.7,15-15
			C351.3,307.7,272.5,228.9,175.7,228.9z"/>
	</g>
</g>
<g>
	<g>
		<path class="st0" d="M175.7,1.9c-52.6,0-95.3,42.8-95.3,95.3s42.8,95.3,95.3,95.3c52.6,0,95.3-42.8,95.3-95.3S228.2,1.9,175.7,1.9
			z"/>
	</g>
</g>
</svg>
