<?xml version="1.0" encoding="utf-8"?>
<!-- Generator: Adobe Illustrator 23.0.2, SVG Export Plug-In . SVG Version: 6.00 Build 0)  -->
<svg version="1.1" id="Layer_1" xmlns="http://www.w3.org/2000/svg" xmlns:xlink="http://www.w3.org/1999/xlink" x="0px" y="0px"
	 viewBox="0 0 279.8 244.9" style="enable-background:new 0 0 279.8 244.9;" xml:space="preserve">
<style type="text/css">
	.st0{fill:#606060;}
	.st1{fill:#3B3A3A;}
</style>
<g>
	<path class="st0" d="M255.4,24.4C214-17.1,172.9,1.1,140,30.6C107,1.1,66.3-17.3,24.5,24.4c-32.6,32.6-32.7,84.9,0,117.2
		c115.1,103.5,115.1,103.3,115.1,103.3s0.2,0.3,115.8-103.3C288.1,109.3,287.9,57,255.4,24.4z"/>
	<path class="st1" d="M139.9,30.7L139.9,30.7l-0.1,214.1c1.8-1.6,15.4-13.3,115.5-103.1c32.7-32.4,32.6-84.7,0-117.2
		C213.9-17,172.8,1.1,139.9,30.7z"/>
</g>
</svg>
