<svg id="Capa_1" data-name="Capa 1" xmlns="http://www.w3.org/2000/svg" viewBox="0 0 59.9 56"><defs><style>.cls-1{fill:#e2c8b5;}</style></defs><title>logoutButton</title><path class="cls-1" d="M59.1,28.4a1.1,1.1,0,0,0,0-.8c-.1-.1-.1-.2-.2-.3l-12-12a1,1,0,0,0-1.4,1.4L55.7,27H25.1a1,1,0,0,0,0,2H55.7L45.4,39.3a1,1,0,0,0,0,1.4,1,1,0,0,0,1.4,0l12-12Z"/><path class="cls-1" d="M21.1,28c0-2.2,1.8-5,4-5h16V1a.94.94,0,0,0-1-1H7.1a.94.94,0,0,0-1,1V55a.94.94,0,0,0,1,1h33a.94.94,0,0,0,1-1V33h-16C22.9,33,21.1,30.2,21.1,28Z"/></svg>