<?xml version="1.0" encoding="utf-8"?>
<!-- Generator: Adobe Illustrator 23.0.2, SVG Export Plug-In . SVG Version: 6.00 Build 0)  -->
<svg version="1.1" id="Capa_1" xmlns="http://www.w3.org/2000/svg" xmlns:xlink="http://www.w3.org/1999/xlink" x="0px" y="0px"
	 viewBox="0 0 59.9 56" style="enable-background:new 0 0 59.9 56;" xml:space="preserve">
<style type="text/css">
	.st0{fill:#E2C8B5;stroke:#E2C8B5;stroke-miterlimit:10;}
	.st1{fill:#E2C8B5;}
</style>
<g>
	<path class="st0" d="M59.1,28.4c0.1-0.2,0.1-0.5,0-0.8c-0.1-0.1-0.1-0.2-0.2-0.3l-12-12c-0.4-0.4-1-0.4-1.4,0s-0.4,1,0,1.4L55.7,27
		H25.1c-0.6,0-1,0.4-1,1s0.4,1,1,1h30.6L45.4,39.3c-0.4,0.4-0.4,1,0,1.4c0.2,0.2,0.5,0.3,0.7,0.3s0.5-0.1,0.7-0.3l12-12
		C58.9,28.6,59,28.5,59.1,28.4z"/>
	<path class="st1" d="M21.1,28c0-2.2,1.8-5,4-5h16V1c0-0.6-0.4-1-1-1h-33c-0.6,0-1,0.4-1,1v54c0,0.6,0.4,1,1,1h33c0.6,0,1-0.4,1-1
		V33h-16C22.9,33,21.1,30.2,21.1,28z"/>
</g>
</svg>
