<?xml version="1.0" encoding="utf-8"?>
<!-- Generator: Adobe Illustrator 23.0.2, SVG Export Plug-In . SVG Version: 6.00 Build 0)  -->
<svg version="1.1" id="Layer_1" xmlns="http://www.w3.org/2000/svg" xmlns:xlink="http://www.w3.org/1999/xlink" x="0px" y="0px"
	 viewBox="0 0 44 32" style="enable-background:new 0 0 44 32;" xml:space="preserve">
<style type="text/css">
	.st0{fill:#3B3A3A;}
</style>
<g>
	<g>
		<g>
			<path class="st0" d="M43,0H1C0.4,0,0,0.4,0,1v30c0,0.6,0.4,1,1,1h42c0.6,0,1-0.4,1-1V1C44,0.4,43.6,0,43,0z M42,27.6L29.6,15.2
				l-1.4,1.4L41.6,30H2.4l13.4-13.4l-1.4-1.4L2,27.6V2h40V27.6z"/>
		</g>
	</g>
	<g>
		<g>
			<path class="st0" d="M40,2L22,20L4,2H2v0.8l19.3,19.3c0.4,0.4,1,0.4,1.4,0L42,2.8V2H40z"/>
		</g>
	</g>
</g>
</svg>
