<?xml version="1.0" encoding="utf-8"?>
<!-- Generator: Adobe Illustrator 23.0.2, SVG Export Plug-In . SVG Version: 6.00 Build 0)  -->
<svg version="1.1" id="Capa_1" xmlns="http://www.w3.org/2000/svg" xmlns:xlink="http://www.w3.org/1999/xlink" x="0px" y="0px"
	 viewBox="0 0 338.9 339.9" style="enable-background:new 0 0 338.9 339.9;" xml:space="preserve">
<style type="text/css">
	.st0{fill:#3B3A3A;}
</style>
<g>
	<path class="st0" d="M334.7,292.1L253.3,208c-5.8-6-13.1-8.4-16.3-5.4c-3.2,3.1-10.5,0.7-16.3-5.4l-1.2-1.2
		c36.4-47.9,32.9-116.5-10.9-160.2c-47.7-47.7-125.1-47.7-172.8,0s-47.7,125.1,0,172.9c44.5,44.5,114.7,47.5,162.7,9l0.5,0.5
		c5.8,6,8,13.4,4.8,16.5s-1,10.4,4.8,16.5l81.3,84.1c5.8,6,15.5,6.2,21.5,0.4l22.8-22.1C340.3,307.7,340.5,298.1,334.7,292.1z
		 M181.8,181.8c-32.9,32.9-86.3,32.9-119.2,0s-32.8-86.3,0-119.2s86.3-32.8,119.1,0C214.7,95.5,214.7,149,181.8,181.8z"/>
</g>
</svg>
