<?xml version="1.0" encoding="utf-8"?>
<!-- Generator: Adobe Illustrator 23.0.2, SVG Export Plug-In . SVG Version: 6.00 Build 0)  -->
<svg version="1.1" id="Capa_1" xmlns="http://www.w3.org/2000/svg" xmlns:xlink="http://www.w3.org/1999/xlink" x="0px" y="0px"
	 viewBox="0 0 339.9 339.9" style="enable-background:new 0 0 339.9 339.9;" xml:space="preserve">
<style type="text/css">
	.st0{fill:#3B3A3A;}
</style>
<g>
	<path class="st0" d="M335.2,292.1L253.8,208c-5.8-6-13.1-8.4-16.3-5.4c-3.2,3.1-10.5,0.7-16.3-5.4L220,196
		c36.4-47.9,32.9-116.5-10.9-160.2C161.4-11.9,84-11.9,36.3,35.8c-47.7,47.7-47.7,125.1,0,172.9c44.5,44.5,114.7,47.5,162.7,9
		l0.5,0.5c5.8,6,8,13.4,4.8,16.5c-3.2,3.1-1,10.4,4.8,16.5l81.3,84.1c5.8,6,15.5,6.2,21.5,0.4l22.8-22.1
		C340.8,307.7,341,298.1,335.2,292.1z M182.3,181.8c-32.9,32.9-86.3,32.9-119.2,0c-32.9-32.9-32.8-86.3,0-119.2
		c32.8-32.9,86.3-32.8,119.1,0C215.2,95.5,215.2,149,182.3,181.8z"/>
</g>
</svg>
