<?xml version="1.0" encoding="utf-8"?>
<!-- Generator: Adobe Illustrator 23.0.2, SVG Export Plug-In . SVG Version: 6.00 Build 0)  -->
<svg version="1.1" id="Capa_1" xmlns="http://www.w3.org/2000/svg" xmlns:xlink="http://www.w3.org/1999/xlink" x="0px" y="0px"
	 viewBox="0 0 500.2 507.4" style="enable-background:new 0 0 500.2 507.4;" xml:space="preserve">
<style type="text/css">
	.st0{fill:#3B3A3A;}
</style>
<g>
	<g id="settings">
		<path class="st0" d="M437.1,280.5c0-7.6,2.5-15.3,2.5-25.5c0-10.2,0-17.9-2.5-25.5l53.5-43.4c5.1-5.1,5.1-10.2,2.5-15.3l-51-89.2
			c-2.5-2.6-7.6-5.1-15.3-2.6L363,104.5c-12.8-10.2-28-17.8-43.4-25.5l-10.2-66.3c2.8-7.6-4.9-12.7-10-12.7h-102
			c-5.1,0-12.8,5.1-12.8,10.2L174.5,79c-15.3,5.1-28.1,15.3-43.3,25.5L69.9,79c-7.7-2.6-12.8,0-17.9,5.1L1,173.3
			c-2.5,2.6,0,10.2,5.1,15.3l53.6,40.8c0,7.6-2.5,15.3-2.5,25.5c0,10.2,0,17.9,2.5,25.5L6.2,323.9c-5.1,5.1-5.1,10.2-2.6,15.3
			l51,89.2c2.5,2.5,7.6,5.1,15.3,2.5l63.8-25.5c12.8,10.2,28.1,17.9,43.4,25.5l10.2,66.3c0,5.1,5.1,10.2,12.8,10.2h102
			c5.1,0,12.8-5.1,12.8-10.2l10.2-66.3c15.3-7.6,30.6-15.3,43.4-25.5l63.8,25.5c5.1,2.5,12.8,0,15.3-5.1l51-89.2
			c2.5-5.1,2.5-12.8-2.6-15.3L437.1,280.5z M248.4,344.2c-48.4,0-89.2-40.8-89.2-89.3s40.8-89.2,89.2-89.2s89.2,40.8,89.2,89.2
			S296.9,344.2,248.4,344.2z"/>
	</g>
</g>
</svg>
