<?xml version="1.0" encoding="utf-8"?>
<!-- Generator: Adobe Illustrator 23.0.2, SVG Export Plug-In . SVG Version: 6.00 Build 0)  -->
<svg version="1.1" id="Layer_1" xmlns="http://www.w3.org/2000/svg" xmlns:xlink="http://www.w3.org/1999/xlink" x="0px" y="0px"
	 viewBox="0 0 279.9 279.9" style="enable-background:new 0 0 279.9 279.9;" xml:space="preserve">
<style type="text/css">
	.st0{fill:#CE3455;}
	.st1{fill:#9B1A30;}
</style>
<path class="st0" d="M255.4,41.8c-41.4-41.5-82.5-23.3-115.4,6.2C107,18.5,66.3,0.1,24.5,41.8c-32.6,32.6-32.7,84.9,0,117.2
	c115.1,103.5,115.1,103.3,115.1,103.3s0.2,0.3,115.8-103.3C288.1,126.7,287.9,74.4,255.4,41.8z"/>
<path class="st1" d="M139.9,48.1L139.9,48.1l-0.1,214.1c1.8-1.6,15.4-13.3,115.5-103.1c32.7-32.4,32.6-84.7,0-117.2
	C213.9,0.4,172.8,18.5,139.9,48.1z"/>
</svg>
