<?xml version="1.0" encoding="utf-8"?>
<!-- Generator: Adobe Illustrator 23.0.2, SVG Export Plug-In . SVG Version: 6.00 Build 0)  -->
<svg version="1.1" id="Capa_1" xmlns="http://www.w3.org/2000/svg" xmlns:xlink="http://www.w3.org/1999/xlink" x="0px" y="0px"
	 viewBox="0 0 612 612" style="enable-background:new 0 0 612 612;" xml:space="preserve">
<style type="text/css">
	.st0{fill:#3B3A3A;}
</style>
<g>
	<path class="st0" d="M306.8,346.8h0.1c4.6,0,9.2-1.3,12.9-3.8l1-0.6c0.2-0.1,0.4-0.3,0.7-0.4l11.7-9.6l278.3-229.6
		c-0.6-0.8-1.6-1.3-2.6-1.3H3.2c-0.8,0-1.4,0.3-2,0.7l291.1,240C296,345.1,301.3,346.8,306.8,346.8z M0,133.9v340.4l208.6-168.5
		L0,133.9z M403.7,306.9L612,474.4V135L403.7,306.9z M337.4,361.6c-8.3,6.8-19.2,10.6-30.6,10.6c-11.5,0-22.3-3.7-30.6-10.5
		l-47.8-39.4L0,506.8v0.6c0,1.8,1.5,3.2,3.3,3.2h605.5c1.7,0,3.2-1.5,3.2-3.3v-0.5L383.7,323.4L337.4,361.6z"/>
</g>
</svg>
